<svg width="39" height="39" viewBox="0 0 39 39" fill="none" xmlns="http://www.w3.org/2000/svg">
<g id="zondicons:close-outline" clip-path="url(#clip0_175_585)">
<path id="Vector" d="M5.7135 33.2865C3.85105 31.4877 2.3655 29.336 1.34352 26.9569C0.321546 24.5778 -0.216385 22.019 -0.238885 19.4298C-0.261384 16.8406 0.231999 14.2729 1.21248 11.8764C2.19295 9.47991 3.64089 7.3027 5.4718 5.47179C7.3027 3.64089 9.47992 2.19295 11.8764 1.21247C14.2729 0.231996 16.8406 -0.261387 19.4298 -0.238888C22.019 -0.216388 24.5778 0.321543 26.9569 1.34352C29.336 2.36549 31.4877 3.85105 33.2865 5.7135C36.8386 9.39124 38.8041 14.317 38.7596 19.4298C38.7152 24.5427 36.6644 29.4335 33.049 33.049C29.4335 36.6644 24.5427 38.7152 19.4298 38.7596C14.317 38.8041 9.39124 36.8386 5.7135 33.2865ZM8.463 30.537C11.3902 33.4642 15.3603 35.1087 19.5 35.1087C23.6397 35.1087 27.6098 33.4642 30.537 30.537C33.4642 27.6098 35.1087 23.6397 35.1087 19.5C35.1087 15.3603 33.4642 11.3902 30.537 8.463C27.6098 5.5358 23.6397 3.89132 19.5 3.89132C15.3603 3.89132 11.3902 5.5358 8.463 8.463C5.5358 11.3902 3.89132 15.3603 3.89132 19.5C3.89132 23.6397 5.5358 27.6098 8.463 30.537ZM27.768 13.9815L22.2495 19.5L27.768 25.0185L25.0185 27.768L19.5 22.2495L13.9815 27.768L11.232 25.0185L16.7505 19.5L11.232 13.9815L13.9815 11.232L19.5 16.7505L25.0185 11.232L27.768 13.9815Z" fill="white"/>
</g>
<defs>
<clipPath id="clip0_175_585">
<rect width="39" height="39" fill="white"/>
</clipPath>
</defs>
</svg>
