<svg width="14" height="11" viewBox="0 0 14 11" fill="none" xmlns="http://www.w3.org/2000/svg">
<path id="Vector" d="M13.333 10.6179H1.33295C1.21146 10.6175 1.09237 10.584 0.9885 10.521C0.884633 10.4579 0.799923 10.3678 0.743487 10.2602C0.687051 10.1526 0.661026 10.0317 0.668215 9.91037C0.675404 9.78909 0.715533 9.67206 0.784284 9.57189L6.78428 0.905227C7.03295 0.545894 7.63162 0.545894 7.88095 0.905227L13.881 9.57189C13.9504 9.67185 13.9911 9.78894 13.9987 9.91042C14.0063 10.0319 13.9804 10.1531 13.9239 10.261C13.8675 10.3688 13.7825 10.4591 13.6783 10.522C13.5741 10.5849 13.4547 10.6181 13.333 10.6179Z" fill="#BEA704"/>
</svg>
