<svg id="em9x2Nt6Gv11" xmlns="http://www.w3.org/2000/svg" xmlns:xlink="http://www.w3.org/1999/xlink" viewBox="0 0 23 23" shape-rendering="geometricPrecision" text-rendering="geometricPrecision"><g><path d="M15.3292,2.41135c-1.7301,0-3.2656.68292-4.3059,1.85673-1.04035-1.17381-2.57586-1.85673-4.306-1.85673-1.5069.00182-2.95156.60124-4.0171,1.66678s-1.66496,2.5102-1.66678,4.0171c0,6.22987,9.11228,11.20757,9.49988,11.41687.1506.0811.3189.1236.49.1236.171,0,.3394-.0425.49-.1236.3875-.2093,9.4998-5.187,9.4998-11.41687-.0018-1.5069-.6012-2.95156-1.6668-4.0171s-2.5102-1.66496-4.0171-1.66678ZM14.8565,14.6713c-1.1995,1.0178-2.4816,1.9338-3.8332,2.7386-1.35163-.8048-2.63379-1.7208-3.8332-2.7386-1.86621-1.6009-4.08982-4.0424-4.08982-6.57607c0-.95929.38108-1.87929,1.0594-2.55762s1.59833-1.0594,2.55762-1.0594c1.53293,0,2.81611.80953,3.3492,2.11338.0776.19007.21.35272.3804.46722s.3711.17564.5764.17564.4059-.06114.5763-.17564.3029-.27715.3805-.46722c.533-1.30385,1.8162-2.11338,3.3491-2.11338.9593,0,1.8793.38108,2.5577,1.0594s1.0594,1.59833,1.0594,2.55762c0,2.53367-2.2236,4.97517-4.0898,6.57607Z" fill="#f00"/></g></svg>
