<svg width="23" height="23" viewBox="0 0 23 23" fill="none" xmlns="http://www.w3.org/2000/svg">
<g id="ph:heart-bold">
<path id="Vector" d="M15.3292 2.41135C13.5991 2.41135 12.0636 3.09427 11.0233 4.26808C9.98295 3.09427 8.44744 2.41135 6.7173 2.41135C5.2104 2.41317 3.76574 3.01259 2.7002 4.07813C1.63466 5.14367 1.03524 6.58833 1.03342 8.09523C1.03342 14.3251 10.1457 19.3028 10.5333 19.5121C10.6839 19.5932 10.8522 19.6357 11.0233 19.6357C11.1943 19.6357 11.3627 19.5932 11.5133 19.5121C11.9008 19.3028 21.0131 14.3251 21.0131 8.09523C21.0113 6.58833 20.4119 5.14367 19.3463 4.07813C18.2808 3.01259 16.8361 2.41317 15.3292 2.41135ZM14.8565 14.6713C13.657 15.6891 12.3749 16.6051 11.0233 17.4099C9.67167 16.6051 8.38951 15.6891 7.1901 14.6713C5.32389 13.0704 3.10028 10.6289 3.10028 8.09523C3.10028 7.13594 3.48136 6.21594 4.15968 5.53761C4.83801 4.85929 5.75801 4.47821 6.7173 4.47821C8.25023 4.47821 9.53341 5.28774 10.0665 6.59159C10.1441 6.78166 10.2765 6.94431 10.4469 7.05881C10.6173 7.17331 10.818 7.23445 11.0233 7.23445C11.2286 7.23445 11.4292 7.17331 11.5996 7.05881C11.77 6.94431 11.9025 6.78166 11.9801 6.59159C12.5131 5.28774 13.7963 4.47821 15.3292 4.47821C16.2885 4.47821 17.2085 4.85929 17.8869 5.53761C18.5652 6.21594 18.9463 7.13594 18.9463 8.09523C18.9463 10.6289 16.7227 13.0704 14.8565 14.6713Z" fill="#ADADAD"/>
</g>
</svg>
