<svg width="24" height="24" viewBox="0 0 24 24" fill="none" xmlns="http://www.w3.org/2000/svg">
<path id="Vector" d="M23.6322 21.1913L18.1915 15.9774C19.5014 14.3062 20.2085 12.2721 20.2061 10.1821C20.2061 4.84341 15.6738 0.5 10.103 0.5C4.53226 0.5 0 4.84341 0 10.1821C0 15.5207 4.53226 19.8642 10.103 19.8642C12.284 19.8664 14.4065 19.1888 16.1503 17.9335L21.591 23.1475C21.8664 23.3834 22.2256 23.5094 22.5948 23.4995C22.9641 23.4896 23.3154 23.3446 23.5766 23.0942C23.8378 22.8439 23.9891 22.5073 23.9994 22.1534C24.0098 21.7995 23.8783 21.4553 23.6322 21.1913ZM2.88658 10.1821C2.88658 8.81427 3.30982 7.47718 4.10277 6.33988C4.89573 5.20259 6.02279 4.31618 7.34142 3.79274C8.66006 3.2693 10.111 3.13235 11.5109 3.39919C12.9108 3.66604 14.1966 4.3247 15.2058 5.29189C16.2151 6.25908 16.9024 7.49135 17.1808 8.83288C17.4593 10.1744 17.3164 11.5649 16.7702 12.8286C16.224 14.0923 15.299 15.1724 14.1123 15.9323C12.9255 16.6922 11.5303 17.0979 10.103 17.0979C8.18982 17.0957 6.35562 16.3663 5.00277 15.0698C3.64992 13.7734 2.88888 12.0156 2.88658 10.1821Z" fill="white"/>
</svg>
